<svg width="50" height="50" viewBox="0 0 50 50" fill="none" xmlns="http://www.w3.org/2000/svg">
<g filter="url(#filter0_d_4049_1619)">
<rect x="4" y="2" width="42" height="42" rx="21" fill="#F8F8F8"/>
<rect x="4.34667" y="2.34667" width="41.3067" height="41.3067" rx="20.6533" stroke="url(#paint0_radial_4049_1619)" stroke-width="0.693333"/>
<path d="M24.1537 13.5049L24.9525 16.2363C26.0272 19.9113 28.901 22.7851 32.576 23.8598L35.3074 24.6586L32.576 25.4574C28.901 26.5321 26.0272 29.4059 24.9525 33.0809L24.1537 35.8123L23.3549 33.0809C22.2802 29.4059 19.4064 26.5321 15.7314 25.4574L13 24.6586L15.7314 23.8598C19.4064 22.7851 22.2802 19.9113 23.3549 16.2363L24.1537 13.5049Z" fill="#C22076"/>
<path d="M24.1537 13.5049L24.9525 16.2363C26.0272 19.9113 28.901 22.7851 32.576 23.8598L35.3074 24.6586L32.576 25.4574C28.901 26.5321 26.0272 29.4059 24.9525 33.0809L24.1537 35.8123L23.3549 33.0809C22.2802 29.4059 19.4064 26.5321 15.7314 25.4574L13 24.6586L15.7314 23.8598C19.4064 22.7851 22.2802 19.9113 23.3549 16.2363L24.1537 13.5049Z" fill="url(#paint1_radial_4049_1619)"/>
<path d="M32.4132 10.2002C33.0539 12.3907 34.7668 14.1037 36.9573 14.7443C34.7668 15.3849 33.0539 17.0979 32.4132 19.2884C31.7726 17.0979 30.0597 15.3849 27.8691 14.7443C30.0597 14.1037 31.7726 12.3907 32.4132 10.2002Z" fill="#C22076"/>
<path d="M32.4132 10.2002C33.0539 12.3907 34.7668 14.1037 36.9573 14.7443C34.7668 15.3849 33.0539 17.0979 32.4132 19.2884C31.7726 17.0979 30.0597 15.3849 27.8691 14.7443C30.0597 14.1037 31.7726 12.3907 32.4132 10.2002Z" fill="url(#paint2_radial_4049_1619)"/>
</g>
<defs>
<filter id="filter0_d_4049_1619" x="0" y="0" width="50" height="50" filterUnits="userSpaceOnUse" color-interpolation-filters="sRGB">
<feFlood flood-opacity="0" result="BackgroundImageFix"/>
<feColorMatrix in="SourceAlpha" type="matrix" values="0 0 0 0 0 0 0 0 0 0 0 0 0 0 0 0 0 0 127 0" result="hardAlpha"/>
<feOffset dy="2"/>
<feGaussianBlur stdDeviation="2"/>
<feComposite in2="hardAlpha" operator="out"/>
<feColorMatrix type="matrix" values="0 0 0 0 1 0 0 0 0 0.00392157 0 0 0 0 0.529412 0 0 0 0.2 0"/>
<feBlend mode="normal" in2="BackgroundImageFix" result="effect1_dropShadow_4049_1619"/>
<feBlend mode="normal" in="SourceGraphic" in2="effect1_dropShadow_4049_1619" result="shape"/>
</filter>
<radialGradient id="paint0_radial_4049_1619" cx="0" cy="0" r="1" gradientUnits="userSpaceOnUse" gradientTransform="translate(19.12 12.5) rotate(58.2128) scale(35.0819)">
<stop stop-color="#3434FF"/>
<stop offset="0.251559" stop-color="#3636FF"/>
<stop offset="0.909259" stop-color="#FF0087"/>
</radialGradient>
<radialGradient id="paint1_radial_4049_1619" cx="0" cy="0" r="1" gradientUnits="userSpaceOnUse" gradientTransform="translate(21.0307 19.0817) rotate(58.2128) scale(18.633)">
<stop stop-color="#3434FF"/>
<stop offset="0.251559" stop-color="#3636FF"/>
<stop offset="0.909259" stop-color="#FF0087"/>
</radialGradient>
<radialGradient id="paint2_radial_4049_1619" cx="0" cy="0" r="1" gradientUnits="userSpaceOnUse" gradientTransform="translate(31.1409 12.4722) rotate(58.2128) scale(7.59124)">
<stop stop-color="#3434FF"/>
<stop offset="0.251559" stop-color="#3636FF"/>
<stop offset="0.909259" stop-color="#FF0087"/>
</radialGradient>
</defs>
</svg>
