<svg width="18" height="18" viewBox="0 0 18 18" fill="none" xmlns="http://www.w3.org/2000/svg">
<path d="M8.51207 3.15234L8.77231 4.04221C9.63396 6.98856 11.9379 9.29252 14.8843 10.1542L15.7741 10.4144L14.8843 10.6747C11.9379 11.5363 9.63396 13.8403 8.77231 16.7866L8.51207 17.6765L8.25183 16.7866C7.39018 13.8403 5.08621 11.5363 2.13986 10.6747L1.25 10.4144L2.13986 10.1542C5.08621 9.29252 7.39018 6.98856 8.25183 4.04221L8.51207 3.15234Z" fill="white"/>
<path d="M13.8912 1C14.3083 2.42624 15.4236 3.54152 16.8499 3.95862C15.4236 4.37572 14.3083 5.491 13.8912 6.91724C13.4741 5.491 12.3589 4.37572 10.9326 3.95862C12.3589 3.54152 13.4741 2.42624 13.8912 1Z" fill="white"/>
</svg>
