<svg width="24" height="26" viewBox="0 0 24 26" fill="none" xmlns="http://www.w3.org/2000/svg">
<path d="M11.1537 3.30469L11.9525 6.03609C13.0272 9.7111 15.901 12.5849 19.576 13.6596L22.3074 14.4584L19.576 15.2572C15.901 16.3319 13.0272 19.2057 11.9525 22.8807L11.1537 25.6121L10.3549 22.8807C9.28017 19.2057 6.40641 16.3319 2.7314 15.2572L0 14.4584L2.7314 13.6596C6.40641 12.5849 9.28017 9.71109 10.3549 6.03609L11.1537 3.30469Z" fill="#C22076"/>
<path d="M11.1537 3.30469L11.9525 6.03609C13.0272 9.7111 15.901 12.5849 19.576 13.6596L22.3074 14.4584L19.576 15.2572C15.901 16.3319 13.0272 19.2057 11.9525 22.8807L11.1537 25.6121L10.3549 22.8807C9.28017 19.2057 6.40641 16.3319 2.7314 15.2572L0 14.4584L2.7314 13.6596C6.40641 12.5849 9.28017 9.71109 10.3549 6.03609L11.1537 3.30469Z" fill="url(#paint0_radial_4103_1456)"/>
<path d="M19.4132 0C20.0539 2.19054 21.7668 3.90349 23.9573 4.5441C21.7668 5.18472 20.0539 6.89767 19.4132 9.08821C18.7726 6.89767 17.0597 5.18472 14.8691 4.5441C17.0597 3.90349 18.7726 2.19054 19.4132 0Z" fill="#C22076"/>
<path d="M19.4132 0C20.0539 2.19054 21.7668 3.90349 23.9573 4.5441C21.7668 5.18472 20.0539 6.89767 19.4132 9.08821C18.7726 6.89767 17.0597 5.18472 14.8691 4.5441C17.0597 3.90349 18.7726 2.19054 19.4132 0Z" fill="url(#paint1_radial_4103_1456)"/>
<defs>
<radialGradient id="paint0_radial_4103_1456" cx="0" cy="0" r="1" gradientUnits="userSpaceOnUse" gradientTransform="translate(8.03067 8.88154) rotate(58.2128) scale(18.633)">
<stop stop-color="#3434FF"/>
<stop offset="0.251559" stop-color="#3636FF"/>
<stop offset="0.909259" stop-color="#FF0087"/>
</radialGradient>
<radialGradient id="paint1_radial_4103_1456" cx="0" cy="0" r="1" gradientUnits="userSpaceOnUse" gradientTransform="translate(18.1409 2.27205) rotate(58.2128) scale(7.59124)">
<stop stop-color="#3434FF"/>
<stop offset="0.251559" stop-color="#3636FF"/>
<stop offset="0.909259" stop-color="#FF0087"/>
</radialGradient>
</defs>
</svg>
