<svg width="24" height="24" viewBox="0 0 24 24" fill="none" xmlns="http://www.w3.org/2000/svg">
<path d="M21.25 20C21.25 19.3096 20.6904 18.75 20 18.75C19.3096 18.75 18.75 19.3096 18.75 20C18.75 20.6904 19.3096 21.25 20 21.25C20.6904 21.25 21.25 20.6904 21.25 20ZM6.64355 4.75C6.38443 5.66513 5.66509 6.38337 4.75 6.64258V17.3564C5.66522 17.6156 6.38441 18.3348 6.64355 19.25H17.3564C17.6156 18.3348 18.3348 17.6156 19.25 17.3564V6.64258C18.3349 6.38337 17.6156 5.66513 17.3564 4.75H6.64355ZM16.5 12.75C16.9142 12.75 17.25 13.0858 17.25 13.5C17.25 14.1547 16.7626 14.555 16.3994 14.7959C16.0048 15.0576 15.4346 15.3342 14.7686 15.6602L13.6797 16.1934C13.0862 16.4838 12.5814 16.75 12 16.75C11.4186 16.75 10.9138 16.4838 10.3203 16.1934L9.23145 15.6602C8.56537 15.3342 7.99515 15.0576 7.60059 14.7959C7.23741 14.555 6.75 14.1547 6.75 13.5C6.75 13.0858 7.08579 12.75 7.5 12.75C7.88005 12.75 8.19298 13.0328 8.24219 13.3994C8.26947 13.4261 8.32393 13.4757 8.42969 13.5459C8.72213 13.7399 9.18278 13.9671 9.89062 14.3135L10.9795 14.8457C11.6949 15.1958 11.8445 15.25 12 15.25C12.1555 15.25 12.3051 15.1958 13.0205 14.8457L14.1094 14.3135C14.8172 13.9671 15.2779 13.7399 15.5703 13.5459C15.6754 13.4762 15.7294 13.4262 15.7568 13.3994C15.806 13.0328 16.1199 12.75 16.5 12.75ZM12 7.25C12.5814 7.25 13.0862 7.5162 13.6797 7.80664L14.7686 8.33984C15.4346 8.6658 16.0048 8.94238 16.3994 9.2041C16.7626 9.44502 17.25 9.84533 17.25 10.5C17.25 11.1547 16.7626 11.555 16.3994 11.7959C16.0048 12.0576 15.4346 12.3342 14.7686 12.6602L13.6797 13.1934C13.0862 13.4838 12.5814 13.75 12 13.75C11.4186 13.75 10.9138 13.4838 10.3203 13.1934L9.23145 12.6602C8.56537 12.3342 7.99515 12.0576 7.60059 11.7959C7.23741 11.555 6.75 11.1547 6.75 10.5C6.75 9.84533 7.23741 9.44502 7.60059 9.2041C7.99515 8.94238 8.56537 8.6658 9.23145 8.33984L10.3203 7.80664C10.9138 7.5162 11.4186 7.25 12 7.25ZM12 8.75C11.8445 8.75 11.6949 8.80419 10.9795 9.1543L9.89062 9.68652C9.18278 10.0329 8.72213 10.2601 8.42969 10.4541C8.40624 10.4697 8.38694 10.4866 8.36816 10.5C8.38694 10.5134 8.40624 10.5303 8.42969 10.5459C8.72213 10.7399 9.18278 10.9671 9.89062 11.3135L10.9795 11.8457C11.6949 12.1958 11.8445 12.25 12 12.25C12.1555 12.25 12.3051 12.1958 13.0205 11.8457L14.1094 11.3135C14.8172 10.9671 15.2779 10.7399 15.5703 10.5459C15.5935 10.5305 15.6122 10.5133 15.6309 10.5C15.6122 10.4867 15.5935 10.4695 15.5703 10.4541C15.2779 10.2601 14.8172 10.0329 14.1094 9.68652L13.0205 9.1543C12.3051 8.80419 12.1555 8.75 12 8.75ZM2.75 20C2.75 20.6904 3.30964 21.25 4 21.25C4.69036 21.25 5.25 20.6904 5.25 20C5.25 19.3096 4.69036 18.75 4 18.75C3.30964 18.75 2.75 19.3096 2.75 20ZM21.25 4C21.25 3.30964 20.6904 2.75 20 2.75C19.3096 2.75 18.75 3.30964 18.75 4C18.75 4.69036 19.3096 5.25 20 5.25C20.6904 5.25 21.25 4.69036 21.25 4ZM2.75 4C2.75 4.69036 3.30964 5.25 4 5.25C4.69036 5.25 5.25 4.69036 5.25 4C5.25 3.30964 4.69036 2.75 4 2.75C3.30964 2.75 2.75 3.30964 2.75 4ZM22.75 4C22.75 5.2584 21.9037 6.31578 20.75 6.64258V17.3564C21.9039 17.6832 22.75 18.7415 22.75 20C22.75 21.5188 21.5188 22.75 20 22.75C18.7415 22.75 17.6832 21.9039 17.3564 20.75H6.64355C6.31684 21.9039 5.2585 22.75 4 22.75C2.48122 22.75 1.25 21.5188 1.25 20C1.25 18.7415 2.09614 17.6832 3.25 17.3564V6.64258C2.09627 6.31578 1.25 5.2584 1.25 4C1.25 2.48122 2.48122 1.25 4 1.25C5.2585 1.25 6.31684 2.09614 6.64355 3.25H17.3564C17.6832 2.09614 18.7415 1.25 20 1.25C21.5188 1.25 22.75 2.48122 22.75 4Z" fill="#020202"/>
</svg>
